<?xml version="1.0" encoding="UTF-8"?>
<svg version="1.1" xmlns="http://www.w3.org/2000/svg" width="1000" height="1000">
<path d="M0 0 C1.90987533 1.35529491 1.90987533 1.35529491 4.76855469 2.77026367 C6.93453446 2.47246323 6.93453446 2.47246323 8.76855469 0.77026367 C10.21681641 -0.36088867 10.21681641 -0.36088867 11.69433594 -1.51489258 C12.82346334 -2.44040409 13.95235627 -3.3662017 15.08105469 -4.29223633 C38.62071137 -23.14571449 69.34080929 -35.49929904 99.71777344 -35.28051758 C100.40077515 -35.27685181 101.08377686 -35.27318604 101.78747559 -35.26940918 C103.44786108 -35.25996279 105.10821617 -35.24539611 106.76855469 -35.22973633 C106.83728158 -5.25917817 106.89023177 24.71137725 106.92175068 54.68199705 C106.92550192 58.23599621 106.92938497 61.78999521 106.93334961 65.34399414 C106.93413654 66.05140638 106.93492347 66.75881862 106.93573425 67.48766759 C106.94871891 78.87896224 106.97233357 90.27021055 107.00001308 101.66147789 C107.02826209 113.38661888 107.04477167 125.11173593 107.05082017 136.83690953 C107.05453475 143.407311 107.06370418 149.97762713 107.08574486 156.54799652 C107.29743513 222.2800076 107.29743513 222.2800076 98.76855469 253.77026367 C98.57535645 254.48537109 98.3821582 255.20047852 98.18310547 255.93725586 C89.05356085 288.85394301 72.52378512 319.3359006 49.76855469 344.77026367 C48.98738281 345.66100586 48.20621094 346.55174805 47.40136719 347.46948242 C39.16640066 356.77299997 30.52047213 365.06794601 20.76855469 372.77026367 C19.8159375 373.55143555 18.86332031 374.33260742 17.88183594 375.13745117 C-28.59676944 412.39174947 -90.55780695 428.07424947 -149.29394531 421.64526367 C-169.533661 419.16971529 -189.28433226 414.30654916 -208.23144531 406.77026367 C-208.97765137 406.4742627 -209.72385742 406.17826172 -210.49267578 405.87329102 C-229.11504668 398.34215522 -246.47214841 388.20574666 -262.23144531 375.77026367 C-263.20210938 375.01100586 -264.17277344 374.25174805 -265.17285156 373.46948242 C-272.14802289 367.88339216 -278.73151865 361.89589681 -285.23144531 355.77026367 C-285.96363281 355.08061523 -286.69582031 354.3909668 -287.45019531 353.68041992 C-300.71504047 340.81036183 -312.15858993 324.84262433 -321.23144531 308.77026367 C-321.68132812 307.9768457 -322.13121094 307.18342773 -322.59472656 306.3659668 C-330.81190372 291.6986308 -337.14644424 276.7899287 -342.23144531 260.77026367 C-342.49538086 259.94107422 -342.75931641 259.11188477 -343.03125 258.25756836 C-344.71472001 252.81639335 -346.06262583 247.34348502 -347.23144531 241.77026367 C-347.42609375 240.86373047 -347.62074219 239.95719727 -347.82128906 239.02319336 C-353.95693403 209.07683465 -353.93389695 175.60484482 -347.23144531 145.77026367 C-347.01713867 144.79299316 -346.80283203 143.81572266 -346.58203125 142.80883789 C-342.07129915 122.77317704 -334.96376583 103.83934393 -325.23144531 85.77026367 C-324.87969238 85.10687988 -324.52793945 84.44349609 -324.16552734 83.76000977 C-295.8819924 30.63781087 -246.06071349 -8.45215844 -188.95800781 -26.28833008 C-178.8457382 -29.29346004 -168.62892434 -31.4813161 -158.23144531 -33.22973633 C-157.49861328 -33.35960937 -156.76578125 -33.48948242 -156.01074219 -33.62329102 C-104.18236975 -42.45936024 -43.02943026 -30.37790185 0 0 Z M-170.23144531 88.77026367 C-170.83762695 89.04821777 -171.44380859 89.32617188 -172.06835938 89.61254883 C-198.62988634 101.97210328 -219.24866204 125.471221 -229.79394531 152.65307617 C-240.29013443 182.57971063 -239.5844893 214.08057343 -226.14941406 242.91088867 C-221.37913179 252.73047434 -215.25956111 261.44009695 -208.23144531 269.77026367 C-207.75320312 270.38256836 -207.27496094 270.99487305 -206.78222656 271.62573242 C-202.34078621 277.18707751 -196.84302397 281.44000834 -191.23144531 285.77026367 C-190.44898438 286.37999023 -189.66652344 286.9897168 -188.86035156 287.61791992 C-165.31389278 305.04944674 -135.48525193 311.31849302 -106.66894531 308.08276367 C-78.29451901 303.7636121 -50.94174279 288.47680093 -33.31738281 265.67651367 C-13.56591428 238.15761369 -4.88294368 207.67696175 -9.86767578 173.93530273 C-11.58015737 163.74316396 -14.91990325 154.13625967 -19.23144531 144.77026367 C-19.59882813 143.94268555 -19.96621094 143.11510742 -20.34472656 142.26245117 C-32.97981807 115.25548582 -56.52173099 96.23496546 -83.64160156 85.05151367 C-111.84132597 74.98675893 -143.12275816 76.04638316 -170.23144531 88.77026367 Z " fill="#FFFFFF" transform="translate(351.2314453125,173.229736328125)"/>
<path d="M0 0 C1.90987533 1.35529491 1.90987533 1.35529491 4.76855469 2.77026367 C6.92915766 2.47545171 6.92915766 2.47545171 8.76855469 0.77026367 C9.75726562 0.00456055 10.74597656 -0.76114258 11.76464844 -1.55004883 C12.91245578 -2.48411959 14.05955376 -3.41906251 15.20605469 -4.35473633 C38.57888628 -22.99927797 68.86629922 -35.34319548 99.01904297 -35.25048828 C100.28225372 -35.24749222 101.54546448 -35.24449615 102.84695435 -35.2414093 C103.81108246 -35.23755722 104.77521057 -35.23370514 105.76855469 -35.22973633 C105.86015123 -3.84082388 105.93077078 27.54805264 105.97281601 58.93706735 C105.97781778 62.65758939 105.98299517 66.37811117 105.98828125 70.09863281 C105.98933049 70.83920412 105.99037973 71.57977544 105.99146077 72.3427883 C106.00878302 84.27473051 106.04027462 96.20659425 106.07716587 108.13849018 C106.11480476 120.41620039 106.13683852 132.69387 106.14490867 144.97163552 C106.15034937 152.5246469 106.16741935 160.07743636 106.20022056 167.63037928 C106.2242165 173.45895038 106.22631767 179.28738486 106.22098541 185.11599541 C106.22207057 187.47996496 106.22981779 189.84394426 106.24537659 192.20786285 C106.39114706 215.53343178 103.71161606 238.44572493 96.76855469 260.77026367 C96.53330078 261.54289551 96.29804687 262.31552734 96.05566406 263.11157227 C82.83878811 305.76999841 55.99959293 345.22154905 20.76855469 372.77026367 C19.81980469 373.54756836 18.87105469 374.32487305 17.89355469 375.12573242 C-27.64667928 411.66247625 -88.6069465 427.56770587 -146.26855469 421.94799805 C-188.15219499 417.27761001 -229.15806258 402.23897693 -262.23144531 375.77026367 C-263.05257812 375.13991211 -263.87371094 374.50956055 -264.71972656 373.86010742 C-271.94256205 368.25002627 -278.60224824 362.05887405 -285.23144531 355.77026367 C-285.98683594 355.05741211 -286.74222656 354.34456055 -287.52050781 353.61010742 C-292.90788786 348.38370487 -297.57476859 342.64747169 -302.23144531 336.77026367 C-303.40513672 335.3394043 -303.40513672 335.3394043 -304.60253906 333.87963867 C-340.57889221 288.98114994 -357.29348051 227.79026558 -351.23144531 170.77026367 C-347.74858335 139.94257533 -338.87647497 111.09803329 -324.23144531 83.77026367 C-323.91208008 83.17020508 -323.59271484 82.57014648 -323.26367188 81.9519043 C-313.6888652 64.1242947 -301.13625957 48.40596044 -287.23144531 33.77026367 C-286.72452148 33.2346582 -286.21759766 32.69905273 -285.6953125 32.1472168 C-277.78637349 23.84850475 -269.42559227 16.60489623 -260.23144531 9.77026367 C-259.67376465 9.34648437 -259.11608398 8.92270508 -258.54150391 8.48608398 C-248.98055989 1.22679705 -238.87475098 -4.6977238 -228.23144531 -10.22973633 C-227.49861328 -10.61516602 -226.76578125 -11.0005957 -226.01074219 -11.39770508 C-204.76055504 -22.44704817 -181.79426659 -29.26745728 -158.23144531 -33.22973633 C-157.49861328 -33.35960937 -156.76578125 -33.48948242 -156.01074219 -33.62329102 C-104.18236975 -42.45936024 -43.02943026 -30.37790185 0 0 Z M-170.23144531 88.77026367 C-170.84826172 89.05885254 -171.46507812 89.34744141 -172.10058594 89.64477539 C-200.6694196 103.245129 -220.40683672 127.40876995 -231.23144531 156.77026367 C-241.11221371 184.76067568 -238.69781224 216.03469823 -226.21191406 242.77807617 C-221.42296876 252.62563086 -216.0005838 261.59899202 -208.37207031 269.52416992 C-206.23144531 271.77026367 -206.23144531 271.77026367 -203.87207031 274.71166992 C-201.16465348 277.99117119 -198.09274887 280.55856022 -194.73144531 283.14526367 C-193.81069214 283.85634277 -193.81069214 283.85634277 -192.87133789 284.58178711 C-167.56046126 303.83222146 -138.20691821 311.56487424 -106.66894531 308.08276367 C-84.6595928 304.74871981 -65.22471981 294.92645104 -48.23144531 280.77026367 C-47.30912109 280.0509668 -47.30912109 280.0509668 -46.36816406 279.31713867 C-24.99349744 262.21740538 -12.14716893 233.27257267 -8.98095703 206.6652832 C-5.89462842 176.48709417 -13.8988127 146.19299355 -32.93994141 122.35375977 C-33.3661377 121.83120605 -33.79233398 121.30865234 -34.23144531 120.77026367 C-34.65119629 120.25415527 -35.07094727 119.73804688 -35.50341797 119.20629883 C-50.73766913 100.84259859 -71.15678545 87.86732739 -94.23144531 81.77026367 C-95.42125 81.4531543 -96.61105469 81.13604492 -97.83691406 80.80932617 C-122.08146239 75.3323194 -147.81477324 78.22268107 -170.23144531 88.77026367 Z " fill="#FFFFFF" transform="translate(894.2314453125,173.229736328125)"/>
<path d="M0 0 C37.62 0 75.24 0 114 0 C114.99 7.92 114.99 7.92 116 16 C119.81552441 38.70237023 128.12238536 59.93285722 144 77 C144.44569336 77.48662109 144.89138672 77.97324219 145.35058594 78.47460938 C167.13850282 102.07195518 194.68648426 112.37635375 226.03515625 115.28125 C253.76303438 116.33587611 280.82073266 105.28043186 302 88 C302.65097656 87.50113281 303.30195313 87.00226563 303.97265625 86.48828125 C330.55135608 65.3585176 339.0201692 31.83864638 343 0 C380.95 0 418.9 0 458 0 C456.83455659 26.80519847 456.83455659 26.80519847 455.25 36.25 C455.0744458 37.33297363 454.8988916 38.41594727 454.71801758 39.53173828 C453.08405216 49.20967614 450.89525521 58.62450599 448 68 C447.76474609 68.77408203 447.52949219 69.54816406 447.28710938 70.34570312 C434.20461798 112.56176374 407.79609565 151.66021056 373 179 C372.00226563 179.80308594 371.00453125 180.60617187 369.9765625 181.43359375 C321.87432956 219.77410187 260.54378286 235.0610716 199.91992188 228.35498047 C141.4075025 221.2415141 86.04036802 190.74844284 49.33105469 144.44042969 C39.67951672 132.05466079 31.31517606 118.88672107 24 105 C23.66258789 104.36465332 23.32517578 103.72930664 22.97753906 103.07470703 C12.3917732 82.82749341 5.97647889 60.42169806 2 38 C1.80519043 36.9176709 1.80519043 36.9176709 1.60644531 35.81347656 C-0.46453113 23.78789067 0 12.35709144 0 0 Z " fill="#FFFFFF" transform="translate(0,629)"/>
<path d="M0 0 C37.95 0 75.9 0 115 0 C115.99 10.395 115.99 10.395 117 21 C122.66084061 48.88488151 137.39498796 75.75779048 160.8125 92.6875 C162.5253592 93.81679834 164.25599584 94.91942105 166 96 C167.05960938 96.65742187 168.11921875 97.31484375 169.2109375 97.9921875 C195.27549597 113.70812891 224.80275196 118.64816074 254.60546875 112.22265625 C273.02210673 107.28470844 288.3803408 99.21575551 303 87 C303.66515625 86.48179687 304.3303125 85.96359375 305.015625 85.4296875 C311.79467744 79.94581987 316.87138645 72.98607931 322 66 C322.65226562 65.11441406 323.30453125 64.22882813 323.9765625 63.31640625 C337.11517249 44.08844048 340.47464098 22.72823121 343 0 C380.95 0 418.9 0 458 0 C458 64.90775282 431.86059096 121.26049245 387 167.1875 C381.94420617 172.16429705 376.62232236 176.67996748 371 181 C370.3925293 181.47276367 369.78505859 181.94552734 369.15917969 182.43261719 C331.86044642 211.23010982 285.29512444 228.80855656 238 230 C237.34112793 230.02046387 236.68225586 230.04092773 236.00341797 230.06201172 C174.86711222 231.78115952 119.86553861 209.54548407 74 170 C72.83597656 169.02353516 72.83597656 169.02353516 71.6484375 168.02734375 C67.67661234 164.66126026 64.19307455 161.11621572 60.83203125 157.140625 C58.86640049 154.84389652 56.81113937 152.64874011 54.75 150.4375 C40.31173986 134.35964083 29.10617927 115.52356577 20 96 C19.21882812 94.34871094 19.21882812 94.34871094 18.421875 92.6640625 C5.09888721 63.14312641 0 32.19008903 0 0 Z " fill="#FFFFFF" transform="translate(541,629)"/>
</svg>
